<?xml version="1.0" encoding="UTF-8" standalone="no"?><!DOCTYPE svg PUBLIC "-//W3C//DTD SVG 1.1//EN" "http://www.w3.org/Graphics/SVG/1.1/DTD/svg11.dtd"><svg width="100%" height="100%" viewBox="0 0 120 120" version="1.1" xmlns="http://www.w3.org/2000/svg" xmlns:xlink="http://www.w3.org/1999/xlink" xml:space="preserve" style="fill-rule:evenodd;clip-rule:evenodd;stroke-linecap:round;stroke-linejoin:round;stroke-miterlimit:1.5;"><path d="M91.187,22.02c0,0 3.439,2.682 3.849,4.704c0.584,2.887 -0.207,8.61 -0.343,12.617c-0.13,3.811 -0.924,8.028 -0.474,11.428c0.418,3.16 1.677,7.787 3.17,8.973c0.238,0.188 -1.25,1.364 -1.931,2.746c-0.501,1.016 -0.849,2.761 -1.022,4.192c-0.228,1.896 -0.394,4.785 -0.345,7.181c0.059,2.884 0.535,7.531 0.698,10.122c0.113,1.807 0.433,3.717 0.277,5.425c-0.153,1.657 -0.456,3.515 -1.217,4.828c-0.761,1.313 -2.831,2.309 -3.351,3.05c-0.267,0.379 -0.21,1.498 0.227,1.392c0.908,-0.218 3.861,-1.249 5.217,-2.704c1.475,-1.582 3,-4.276 3.629,-6.783c0.635,-2.537 0.163,-5.625 0.185,-8.438c0.031,-4.004 0.104,-12.218 0,-15.584c-0.054,-1.756 0.739,-3 1.42,-3.715c0.211,-0.221 1.004,-1.042 1.209,-1.377c0.109,-0.176 0.143,-0.463 0.021,-0.631c-0.255,-0.348 -1.256,-0.799 -1.555,-1.458c-0.426,-0.939 -0.893,-2.744 -1.001,-4.174c-0.185,-2.426 -0.156,-7.691 -0.104,-10.38c0.036,-1.92 0.32,-3.863 0.409,-5.748c0.089,-1.854 0.322,-3.767 0.13,-5.565c-0.191,-1.788 -0.469,-3.659 -1.284,-5.225c-0.816,-1.566 -2.36,-3.149 -3.607,-4.171c-1.131,-0.926 -3.175,-1.843 -3.877,-1.961c-0.408,-0.068 -0.33,1.256 -0.33,1.256l0,0Z" style="fill:#fff1e0;stroke:#000;stroke-width:1.16px;"/><path d="M29.279,20.889c0,0 -3.261,2.683 -3.649,4.704c-0.554,2.887 0.195,8.61 0.325,12.618c0.122,3.81 0.876,8.027 0.45,11.427c-0.397,3.159 -1.591,7.788 -3.007,8.973c-0.226,0.189 1.186,1.364 1.831,2.745c0.477,1.017 0.806,2.761 0.97,4.193c0.216,1.895 0.373,4.785 0.327,7.18c-0.056,2.884 -0.508,7.531 -0.662,10.122c-0.107,1.809 -0.41,3.717 -0.262,5.426c0.144,1.657 0.431,3.515 1.154,4.827c0.721,1.314 2.683,2.311 3.177,3.051c0.252,0.379 0.199,1.498 -0.216,1.393c-0.86,-0.219 -3.66,-1.251 -4.946,-2.706c-1.399,-1.581 -2.845,-4.275 -3.441,-6.782c-0.603,-2.536 -0.155,-5.624 -0.176,-8.438c-0.029,-4.004 -0.098,-12.219 0,-15.584c0.051,-1.756 -0.7,-3 -1.347,-3.715c-0.199,-0.221 -0.951,-1.041 -1.146,-1.376c-0.103,-0.177 -0.136,-0.465 -0.019,-0.632c0.242,-0.348 1.19,-0.8 1.474,-1.457c0.404,-0.939 0.847,-2.745 0.95,-4.175c0.175,-2.426 0.146,-7.692 0.098,-10.379c-0.034,-1.922 -0.303,-3.864 -0.388,-5.75c-0.085,-1.853 -0.306,-3.766 -0.124,-5.565c0.182,-1.787 0.446,-3.658 1.219,-5.224c0.772,-1.567 2.237,-3.149 3.419,-4.171c1.072,-0.927 3.011,-1.844 3.676,-1.96c0.387,-0.07 0.313,1.255 0.313,1.255l0,0Z" style="fill:#fff1e0;stroke:#000;stroke-width:1.2px;"/><path d="M48.156,68.336l3.067,-8.676l18.497,-0.282l3.115,9.352c-8.465,4.555 -16.693,4.442 -24.679,-0.394Z" style="fill:#fff1e0;stroke:#000;stroke-width:1.91px;"/><ellipse cx="60.312" cy="48.233" rx="15.681" ry="15.622" style="fill:#fff1e0;stroke:#000;stroke-width:1.62px;"/><g><path d="M74.017,39.684c0.028,-0.017 0.056,-0.026 0.084,-0.026c0.029,0 0.057,0.009 0.084,0.026l2.91,0l0.11,16.019l-2.964,-0.097c-0.046,0.047 -0.092,0.071 -0.14,0.071c-0.575,0 -1.042,-3.589 -1.042,-8.009c0,-3.941 0.371,-7.221 0.859,-7.887l0.099,-0.097Z" style="fill:#fff1e0;stroke:#000;stroke-width:1.91px;"/><ellipse cx="77.095" cy="47.665" rx="1.018" ry="7.981" style="fill:#fff1e0;stroke:#000;stroke-width:1.88px;"/></g><g><path d="M47.235,55.719c-0.028,0.017 -0.055,0.027 -0.084,0.028c-0.028,0 -0.057,-0.008 -0.084,-0.024l-2.909,0.077l-0.492,-16.012l2.966,0.02c0.044,-0.049 0.09,-0.074 0.138,-0.075c0.575,-0.016 1.128,3.56 1.233,7.979c0.094,3.94 -0.199,7.228 -0.672,7.907l-0.096,0.1Z" style="fill:#fff1e0;stroke:#000;stroke-width:1.9px;"/><path d="M44.158,55.799c-0.562,0.015 -1.103,-3.548 -1.208,-7.951c-0.105,-4.403 0.266,-7.99 0.828,-8.005c0.561,-0.015 1.103,3.548 1.207,7.951c0.105,4.404 -0.266,7.991 -0.827,8.005Z" style="fill:#fff1e0;stroke:#000;stroke-width:1.88px;"/></g><g><path d="M53.043,34.047c-0.015,-0.029 -0.023,-0.058 -0.023,-0.088c0,-0.03 0.008,-0.06 0.024,-0.088l0.008,-3.054l14.687,-0.071l-0.097,3.11c0.043,0.049 0.065,0.098 0.065,0.147c-0.002,0.605 -3.293,1.085 -7.346,1.073c-3.614,-0.011 -6.619,-0.41 -7.228,-0.925l-0.09,-0.104Z" style="fill:#fff1e0;stroke:#000;stroke-width:1.91px;"/><path d="M53.053,30.816c0.001,-0.59 3.281,-1.058 7.32,-1.046c4.038,0.012 7.315,0.501 7.313,1.091c-0.001,0.59 -3.281,1.059 -7.319,1.046c-4.039,-0.012 -7.316,-0.501 -7.314,-1.091Z" style="fill:#fff1e0;stroke:#000;stroke-width:1.93px;"/></g><ellipse cx="60.424" cy="48.639" rx="8.099" ry="8.526" style="fill:#012b4d;stroke:#000;stroke-width:1.91px;"/><path d="M48.167,68.518l-11.921,5.534c13.259,19.575 32.906,19.931 48.401,0.943l-11.201,-6.288" style="fill:#fff1e0;stroke:#000;stroke-width:1.91px;"/></svg>