<?xml version="1.0" encoding="UTF-8" standalone="no"?><!DOCTYPE svg PUBLIC "-//W3C//DTD SVG 1.1//EN" "http://www.w3.org/Graphics/SVG/1.1/DTD/svg11.dtd"><svg width="100%" height="100%" viewBox="0 0 120 120" version="1.1" xmlns="http://www.w3.org/2000/svg" xmlns:xlink="http://www.w3.org/1999/xlink" xml:space="preserve" style="fill-rule:evenodd;clip-rule:evenodd;stroke-linecap:round;stroke-linejoin:round;stroke-miterlimit:1.5;"><ellipse cx="64.785" cy="54.05" rx="52.185" ry="50.819" style="fill:#fff1e0;"/><g><path d="M56.386,59.016l3.415,-9.335l20.599,-0.303l3.469,10.062c-9.427,4.901 -18.589,4.78 -27.483,-0.424Z" style="stroke:#000;stroke-width:0.84px;"/><ellipse cx="69.923" cy="37.386" rx="17.462" ry="16.809" style="stroke:#000;stroke-width:0.93px;"/><g><path d="M85.185,28.186c0.031,-0.018 0.063,-0.027 0.094,-0.027c0.032,0 0.063,0.009 0.094,0.027l3.24,0l0.123,17.237l-3.301,-0.104c-0.051,0.05 -0.103,0.076 -0.156,0.076c-0.641,0 -1.161,-3.861 -1.161,-8.618c0,-4.241 0.413,-7.77 0.957,-8.486l0.11,-0.105Z" style="stroke:#000;stroke-width:0.76px;"/><ellipse cx="88.613" cy="36.774" rx="1.134" ry="8.587" style="stroke:#000;stroke-width:0.77px;"/></g><g><path d="M55.36,45.44c-0.03,0.019 -0.061,0.029 -0.093,0.03c-0.031,0.001 -0.063,-0.008 -0.094,-0.025l-3.239,0.082l-0.548,-17.228l3.303,0.02c0.049,-0.052 0.1,-0.079 0.153,-0.08c0.641,-0.017 1.256,3.831 1.374,8.586c0.104,4.239 -0.222,7.778 -0.748,8.507l-0.108,0.108Z" style="stroke:#000;stroke-width:0.9px;"/><path d="M51.934,45.527c-0.626,0.016 -1.229,-3.818 -1.346,-8.556c-0.116,-4.738 0.297,-8.598 0.922,-8.614c0.626,-0.015 1.229,3.818 1.345,8.556c0.117,4.738 -0.296,8.598 -0.921,8.614Z" style="stroke:#000;stroke-width:0.6px;"/></g><g><path d="M61.829,22.121c-0.017,-0.031 -0.026,-0.063 -0.026,-0.095c0,-0.032 0.009,-0.064 0.027,-0.095l0.009,-3.286l16.356,-0.076l-0.109,3.347c0.048,0.052 0.073,0.104 0.072,0.158c-0.001,0.65 -3.667,1.167 -8.181,1.154c-4.023,-0.012 -7.371,-0.441 -8.049,-0.995l-0.099,-0.112Z" style="stroke:#000;stroke-width:0.62px;"/><path d="M61.839,18.645c0.002,-0.635 3.655,-1.14 8.152,-1.126c4.497,0.013 8.146,0.539 8.145,1.174c-0.002,0.634 -3.655,1.139 -8.152,1.126c-4.497,-0.014 -8.147,-0.54 -8.145,-1.174Z" style="stroke:#000;stroke-width:0.5px;"/></g><ellipse cx="70.048" cy="37.822" rx="9.019" ry="9.174" style="stroke:#000;stroke-width:0.87px;"/><path d="M56.398,59.213l-13.275,5.953c14.765,21.064 36.645,21.447 53.9,1.015l-12.474,-6.765" style="stroke:#000;stroke-width:0.79px;"/></g><g><path d="M51.249,60.867l3.416,-9.335l20.599,-0.304l3.469,10.063c-9.427,4.901 -18.589,4.779 -27.484,-0.424Z" style="fill:#fff1e0;stroke:#000;stroke-width:0.84px;"/><ellipse cx="64.787" cy="39.236" rx="17.462" ry="16.809" style="fill:#fff1e0;stroke:#000;stroke-width:0.93px;"/><g><path d="M80.049,30.037c0.031,-0.018 0.062,-0.028 0.094,-0.028c0.031,0 0.063,0.01 0.094,0.028l3.239,0l0.123,17.237l-3.3,-0.105c-0.051,0.051 -0.103,0.077 -0.156,0.077c-0.641,0 -1.161,-3.862 -1.161,-8.618c0,-4.241 0.413,-7.77 0.957,-8.486l0.11,-0.105Z" style="fill:#fff1e0;stroke:#000;stroke-width:0.76px;"/><ellipse cx="83.477" cy="38.624" rx="1.134" ry="8.587" style="fill:#fff1e0;stroke:#000;stroke-width:0.77px;"/></g><g><path d="M50.224,47.291c-0.031,0.019 -0.062,0.029 -0.093,0.03c-0.032,0 -0.063,-0.008 -0.095,-0.025l-3.238,0.082l-0.548,-17.229l3.302,0.021c0.05,-0.052 0.101,-0.079 0.154,-0.081c0.641,-0.016 1.256,3.831 1.373,8.586c0.105,4.24 -0.222,7.778 -0.748,8.508l-0.107,0.108Z" style="fill:#fff1e0;stroke:#000;stroke-width:0.9px;"/><path d="M46.797,47.377c-0.625,0.016 -1.228,-3.818 -1.345,-8.556c-0.117,-4.738 0.296,-8.597 0.922,-8.613c0.625,-0.016 1.228,3.818 1.345,8.556c0.117,4.738 -0.296,8.597 -0.922,8.613Z" style="fill:#fff1e0;stroke:#000;stroke-width:0.6px;"/></g><g><path d="M56.693,23.972c-0.018,-0.032 -0.026,-0.063 -0.026,-0.096c0,-0.031 0.009,-0.063 0.026,-0.094l0.009,-3.286l16.356,-0.077l-0.108,3.347c0.048,0.052 0.072,0.105 0.072,0.159c-0.002,0.65 -3.668,1.167 -8.181,1.153c-4.024,-0.012 -7.371,-0.441 -8.049,-0.994l-0.099,-0.112Z" style="fill:#fff1e0;stroke:#000;stroke-width:0.62px;"/><path d="M56.703,20.495c0.002,-0.634 3.654,-1.139 8.151,-1.126c4.497,0.014 8.147,0.54 8.145,1.174c-0.002,0.635 -3.654,1.139 -8.151,1.126c-4.497,-0.013 -8.147,-0.539 -8.145,-1.174Z" style="fill:#fff1e0;stroke:#000;stroke-width:0.5px;"/></g><ellipse cx="64.911" cy="39.673" rx="9.019" ry="9.174" style="fill:#fff1e0;stroke:#000;stroke-width:0.87px;"/><path d="M51.262,61.063l-13.275,5.954c14.765,21.064 36.645,21.447 53.9,1.015l-12.474,-6.766" style="fill:#fff1e0;stroke:#000;stroke-width:0.79px;"/></g></svg>