<?xml version="1.0" encoding="UTF-8" standalone="no"?>
<!DOCTYPE svg PUBLIC "-//W3C//DTD SVG 1.1//EN" "http://www.w3.org/Graphics/SVG/1.1/DTD/svg11.dtd">
<svg width="100%" height="100%" viewBox="0 0 90 120" version="1.1" xmlns="http://www.w3.org/2000/svg" xmlns:xlink="http://www.w3.org/1999/xlink" xml:space="preserve" style="fill-rule:evenodd;clip-rule:evenodd;stroke-linecap:round;stroke-linejoin:round;stroke-miterlimit:1.5;">
    <g>
        <path d="M73.585,26.106C73.585,26.106 76.927,28.589 77.325,30.461C77.893,33.134 77.124,38.432 76.992,42.142C76.866,45.67 76.094,49.574 76.531,52.722C76.937,55.647 78.161,59.931 79.612,61.029C79.843,61.203 78.397,62.292 77.735,63.571C77.248,64.512 76.91,66.127 76.742,67.452C76.521,69.207 76.359,71.882 76.407,74.1C76.464,76.77 76.927,81.072 77.085,83.471C77.195,85.144 77.506,86.912 77.354,88.494C77.206,90.028 76.911,91.748 76.172,92.963C75.432,94.179 73.421,95.101 72.915,95.787C72.656,96.138 72.711,97.174 73.136,97.076C74.018,96.874 76.888,95.919 78.206,94.572C79.639,93.108 81.121,90.614 81.732,88.293C82.349,85.944 81.891,83.085 81.912,80.481C81.942,76.774 82.013,69.169 81.912,66.053C81.86,64.427 82.63,63.276 83.292,62.614C83.497,62.409 84.268,61.649 84.467,61.339C84.573,61.176 84.606,60.91 84.487,60.755C84.239,60.433 83.267,60.015 82.976,59.405C82.562,58.536 82.108,56.865 82.003,55.541C81.824,53.295 81.852,48.42 81.902,45.931C81.937,44.153 82.213,42.355 82.3,40.609C82.386,38.893 82.613,37.122 82.426,35.457C82.24,33.802 81.97,32.07 81.178,30.62C80.385,29.17 78.885,27.705 77.673,26.759C76.574,25.901 74.588,25.052 73.906,24.943C73.509,24.88 73.585,26.106 73.585,26.106L73.585,26.106Z" style="fill:rgb(255,241,224);stroke:white;stroke-width:0.41px;"/>
        <path d="M13.147,25.324C13.147,25.324 9.978,27.808 9.601,29.679C9.063,32.352 9.791,37.65 9.917,41.361C10.036,44.888 10.768,48.792 10.354,51.94C9.969,54.865 8.808,59.15 7.432,60.247C7.213,60.422 8.585,61.51 9.212,62.789C9.675,63.73 9.995,65.345 10.154,66.67C10.364,68.425 10.517,71.1 10.472,73.318C10.418,75.988 9.978,80.29 9.829,82.689C9.725,84.363 9.43,86.13 9.574,87.712C9.714,89.246 9.993,90.966 10.695,92.181C11.396,93.397 13.303,94.32 13.783,95.005C14.028,95.356 13.976,96.392 13.573,96.295C12.737,96.092 10.016,95.137 8.766,93.79C7.407,92.326 6.002,89.832 5.423,87.511C4.837,85.163 5.272,82.304 5.252,79.699C5.223,75.992 5.156,68.387 5.252,65.272C5.301,63.646 4.571,62.494 3.943,61.832C3.749,61.628 3.018,60.868 2.829,60.558C2.729,60.394 2.697,60.128 2.81,59.973C3.046,59.651 3.967,59.233 4.243,58.624C4.635,57.755 5.066,56.083 5.166,54.759C5.336,52.513 5.308,47.638 5.261,45.15C5.228,43.371 4.967,41.573 4.884,39.827C4.802,38.111 4.587,36.34 4.764,34.675C4.941,33.02 5.197,31.288 5.948,29.838C6.699,28.388 8.122,26.923 9.271,25.977C10.313,25.119 12.197,24.27 12.843,24.162C13.219,24.098 13.147,25.324 13.147,25.324L13.147,25.324Z" style="fill:rgb(255,241,224);stroke:white;stroke-width:0.41px;"/>
        <g transform="matrix(0.311683,0,0,0.349076,-44.266,-25.4375)">
            <path d="M243.058,271.254L252.621,248.244L310.293,247.497L320.005,272.299C293.611,284.379 267.96,284.079 243.058,271.254Z" style="fill:rgb(255,241,224);stroke:black;stroke-width:5.46px;"/>
        </g>
        <g transform="matrix(0.336932,0,0,0.331977,-52.8069,-25.2156)">
            <ellipse cx="285.253" cy="228.496" rx="45.226" ry="43.565" style="fill:rgb(255,241,224);stroke:black;stroke-width:6.94px;"/>
        </g>
        <g transform="matrix(0.311683,0,0,0.311683,-45.6728,-16.4929)">
            <path d="M328.203,189.992C328.29,189.942 328.377,189.916 328.466,189.916C328.554,189.916 328.642,189.942 328.728,189.992L337.799,189.992L338.143,237.574L328.902,237.286C328.759,237.426 328.614,237.498 328.466,237.498C326.671,237.498 325.215,226.838 325.215,213.707C325.215,202.001 326.372,192.259 327.895,190.282L328.203,189.992Z" style="fill:rgb(255,241,224);stroke:black;stroke-width:5.8px;"/>
            <g transform="matrix(1.69388,0,0,1.01434,-236.593,-4.19826)">
                <ellipse cx="339.099" cy="214.816" rx="1.874" ry="23.37" style="fill:rgb(255,241,224);stroke:black;stroke-width:4.15px;"/>
            </g>
        </g>
        <g transform="matrix(-0.311586,0.00779077,-0.00779077,-0.311586,134.34,114.212)">
            <path d="M328.203,189.992C328.29,189.942 328.377,189.916 328.466,189.916C328.554,189.916 328.642,189.942 328.728,189.992L337.799,189.992L338.143,237.574L328.902,237.286C328.759,237.426 328.614,237.498 328.466,237.498C326.671,237.498 325.215,226.838 325.215,213.707C325.215,202.001 326.372,192.259 327.895,190.282L328.203,189.992Z" style="fill:rgb(255,241,224);stroke:black;stroke-width:5.8px;"/>
            <g transform="matrix(1.69388,0,0,1.01434,-236.593,-4.19826)">
                <ellipse cx="339.099" cy="214.816" rx="1.874" ry="23.37" style="fill:rgb(255,241,224);stroke:black;stroke-width:4.15px;"/>
            </g>
        </g>
        <g transform="matrix(0.000905215,-0.311682,0.299948,0.000871135,-21.0437,139.636)">
            <path d="M328.203,189.992C328.29,189.942 328.377,189.916 328.466,189.916C328.554,189.916 328.642,189.942 328.728,189.992L337.799,189.992L338.143,237.574L328.902,237.286C328.759,237.426 328.614,237.498 328.466,237.498C326.671,237.498 325.215,226.838 325.215,213.707C325.215,202.001 326.372,192.259 327.895,190.282L328.203,189.992Z" style="fill:rgb(255,241,224);stroke:black;stroke-width:5.91px;"/>
            <g transform="matrix(1.69388,0,0,1.01434,-236.593,-4.19826)">
                <ellipse cx="339.099" cy="214.816" rx="1.874" ry="23.37" style="fill:rgb(255,241,224);stroke:black;stroke-width:4.19px;"/>
            </g>
        </g>
        <g transform="matrix(0.311683,0,0,0.311683,-44.8248,-17.3937)">
            <ellipse cx="283.101" cy="219.483" rx="25.25" ry="25.325" style="fill:rgb(255,241,224);stroke:black;stroke-width:5.8px;"/>
        </g>
        <g transform="matrix(0.311683,0,0,0.311683,-44.266,-16.1829)">
            <path d="M243.093,274.646L205.927,291.081C247.264,349.227 308.523,350.285 356.832,293.883L321.908,275.206" style="fill:rgb(255,241,224);stroke:black;stroke-width:5.8px;"/>
        </g>
    </g>
</svg>
