<?xml version="1.0" encoding="UTF-8" standalone="no"?><!DOCTYPE svg PUBLIC "-//W3C//DTD SVG 1.1//EN" "http://www.w3.org/Graphics/SVG/1.1/DTD/svg11.dtd"><svg width="100%" height="100%" viewBox="0 0 1200 1334" version="1.1" xmlns="http://www.w3.org/2000/svg" xmlns:xlink="http://www.w3.org/1999/xlink" xml:space="preserve" style="fill-rule:evenodd;clip-rule:evenodd;stroke-linecap:round;stroke-linejoin:round;stroke-miterlimit:1.5;"><rect x="-15.372" y="-121.917" width="1228.21" height="1732.3" style="fill:#066;"/><g><ellipse cx="242.25" cy="1074.72" rx="31.729" ry="28.971" style="fill:none;stroke:#cf3f00;stroke-width:4.45px;"/><text x="228.612px" y="1089.3px" style="font-family:'ArialMT', 'Arial', sans-serif;font-size:41.857px;fill:#cf3f00;">S</text></g><g><ellipse cx="241.212" cy="1170.29" rx="31.729" ry="28.971" style="fill:none;stroke:#f0cd38;stroke-width:4.45px;"/><text x="227.575px" y="1184.87px" style="font-family:'ArialMT', 'Arial', sans-serif;font-size:41.857px;fill:#f0cd38;">S</text></g><text x="313.446px" y="1082.01px" style="font-family:'ArialMT', 'Arial', sans-serif;font-size:32.523px;fill:#cf3f00;">G<tspan x="338.979px 362.685px 384.58px 406.474px 430.18px 439.3px 463.006px 472.126px 490.382px 499.503px 523.208px " y="1082.01px 1082.01px 1082.01px 1082.01px 1082.01px 1082.01px 1082.01px 1082.01px 1082.01px 1082.01px 1082.01px ">RAPHIC LINE</tspan></text><text x="315.452px" y="1180.12px" style="font-family:'ArialMT', 'Arial', sans-serif;font-size:32.552px;fill:#fee27d;">C<tspan x="339.179px 364.735px 388.462px 397.59px 421.317px 446.873px 456.001px 474.273px 483.402px 507.128px " y="1180.12px 1180.12px 1180.12px 1180.12px 1180.12px 1180.12px 1180.12px 1180.12px 1180.12px 1180.12px ">ODING LINE</tspan></text><g><ellipse cx="1008" cy="188.051" rx="19.185" ry="18.733" style="fill:#f0cd38;stroke:#000;stroke-width:0.44px;"/><ellipse cx="1010.09" cy="325.102" rx="19.185" ry="18.733" style="fill:#f0cd38;stroke:#000;stroke-width:0.44px;"/><ellipse cx="1009.39" cy="471.105" rx="19.185" ry="18.733" style="fill:#f0cd38;stroke:#000;stroke-width:0.44px;"/><ellipse cx="1010.78" cy="617.797" rx="19.185" ry="18.733" style="fill:#f0cd38;stroke:#000;stroke-width:0.44px;"/><ellipse cx="1009.39" cy="896.717" rx="19.185" ry="18.733" style="fill:#f0cd38;stroke:#000;stroke-width:0.44px;"/><ellipse cx="1009.39" cy="1013.11" rx="19.185" ry="18.733" style="fill:#f0cd38;stroke:#000;stroke-width:0.44px;"/><ellipse cx="1011.48" cy="1133.63" rx="19.185" ry="18.733" style="fill:#f0cd38;stroke:#000;stroke-width:0.44px;"/><text x="807.015px" y="197.469px" style="font-family:'BerlinSansFB-Reg', 'Berlin Sans FB', sans-serif;font-size:32.856px;fill:#fff;">W<tspan x="836.598px 853.552px 864.595px 883.038px 901.74px 912.784px 928.766px " y="197.469px 197.469px 197.469px 197.469px 197.469px 197.469px 197.469px ">ordpres</tspan>s</text><text x="863.755px" y="330.056px" style="font-family:'BerlinSansFB-Reg', 'Berlin Sans FB', sans-serif;font-size:32.856px;fill:#fff;">R<tspan x="883.461px 899.443px 917.821px 931.148px " y="330.056px 330.056px 330.056px 330.056px ">eact</tspan></text><text x="840.492px" y="479.254px" style="font-family:'BerlinSansFB-Reg', 'Berlin Sans FB', sans-serif;font-size:32.856px;fill:#fff;">N<tspan x="864.295px 881.248px 899.692px 915.673px 923.964px 932.821px " y="479.254px 479.254px 479.254px 479.254px 479.254px 479.254px ">ode Js</tspan></text><text x="822.168px" y="625.257px" style="font-family:'BerlinSansFB-Reg', 'Berlin Sans FB', sans-serif;font-size:32.856px;fill:#fff;">G<tspan x="844.546px 862.925px 874.259px 884.169px 902.547px 918.335px 926.625px 933.961px " y="625.257px 625.257px 625.257px 625.257px 625.257px 625.257px 625.257px 625.257px ">atsby js</tspan></text><text x="771.76px" y="908.641px" style="font-family:'BerlinSansFB-Reg', 'Berlin Sans FB', sans-serif;font-size:32.856px;fill:#fff;">R<tspan x="791.467px 807.448px 825.827px 839.153px 850.488px 858.778px 882.581px 900.96px 912.294px 919.597px 936.372px " y="908.641px 908.641px 908.641px 908.641px 908.641px 908.641px 908.641px 908.641px 908.641px 908.641px 908.641px ">eact Native</tspan></text><text x="832.317px" y="1022.33px" style="font-family:'BerlinSansFB-Reg', 'Berlin Sans FB', sans-serif;font-size:32.856px;fill:#fff;">F<tspan x="849.999px 857.302px 868.345px 884.327px 902.705px 921.084px " y="1022.33px 1022.33px 1022.33px 1022.33px 1022.33px 1022.33px ">irebas</tspan>e</text><text x="830.01px" y="1143.32px" style="font-family:'BerlinSansFB-Reg', 'Berlin Sans FB', sans-serif;font-size:32.856px;fill:#fff;">M<tspan x="856.209px 872.191px 883.526px 899.508px 916.461px 927.504px 935.795px 943.13px " y="1143.32px 1143.32px 1143.32px 1143.32px 1143.32px 1143.32px 1143.32px 1143.32px ">eteor js</tspan></text><path d="M1008.84,188.394l0.695,942.133" style="fill:none;stroke:#f0cd38;stroke-width:4.45px;"/></g><g><ellipse cx="481.639" cy="563.452" rx="17.737" ry="17.318" style="fill:#cf3f00;"/><ellipse cx="398.1" cy="457.891" rx="17.737" ry="17.318" style="fill:#cf3f00;stroke:#000;stroke-width:0.44px;"/><path d="M394.072,454.06l85.682,104.688" style="fill:none;stroke:#cf3f00;stroke-width:4.45px;"/><ellipse cx="572.249" cy="666.596" rx="17.737" ry="17.318" style="fill:#cf3f00;"/><ellipse cx="650.705" cy="748.243" rx="17.737" ry="17.318" style="fill:#cf3f00;"/><ellipse cx="1010.93" cy="750.563" rx="17.737" ry="17.93" style="fill:#cf3f00;"/><path d="M481.896,564.272l87.397,103.287" style="fill:none;stroke:#cf3f00;stroke-width:4.45px;"/><text x="140.269px" y="462.538px" style="font-family:'BerlinSansFB-Reg', 'Berlin Sans FB', sans-serif;font-size:29.907px;fill:#fff;">A<tspan x="160.167px 169.04px 184.369px 200.154px 206.801px 217.119px 231.489px 239.035px 259.567px 274.114px 283.135px 289.782px 305.479px 321.264px 335.812px " y="462.538px 462.538px 462.538px 462.538px 462.538px 462.538px 462.538px 462.538px 462.538px 462.538px 462.538px 462.538px 462.538px 462.538px 462.538px ">fﬁnity Designer</tspan></text><text x="302.238px" y="574.695px" style="font-family:'BerlinSansFB-Reg', 'Berlin Sans FB', sans-serif;font-size:29.907px;fill:#fff;">Il<tspan x="316.034px 322.681px 339.336px 348.356px 358.674px 368.726px 385.454px 395.772px 411.203px " y="574.695px 574.695px 574.695px 574.695px 574.695px 574.695px 574.695px 574.695px 574.695px ">lustrator</tspan></text><text x="368.149px" y="674.861px" style="font-family:'BerlinSansFB-Reg', 'Berlin Sans FB', sans-serif;font-size:29.907px;fill:#fff;">A<tspan x="388.047px 396.919px 407.237px 421.784px 431.836px 439.382px 455.625px 464.498px 473.371px 487.918px 500.048px " y="674.861px 674.861px 674.861px 674.861px 674.861px 674.861px 674.861px 674.861px 674.861px 674.861px 674.861px ">fter Effect</tspan></text><text x="1056.26px" y="759.391px" style="font-family:'BerlinSansFB-Reg', 'Berlin Sans FB', sans-serif;font-size:29.907px;fill:#fff;">U<tspan x="1076.19px 1091.97px 1098.62px 1108.94px " y="759.391px 759.391px 759.391px 759.391px ">nity</tspan></text><text x="443.063px" y="763.356px" style="font-family:'BerlinSansFB-Reg', 'Berlin Sans FB', sans-serif;font-size:29.907px;fill:#fff;">C<tspan x="460.956px 467.603px 483.388px 497.936px 523.257px 539.986px 547.532px 562.625px " y="763.356px 763.356px 763.356px 763.356px 763.356px 763.356px 763.356px 763.356px ">inema 4d</tspan></text><path d="M647.975,744.775l368.154,4.724" style="fill:none;stroke:#cf3f00;stroke-width:4.46px;"/><path d="M570.177,664.108l78.995,86.342" style="fill:none;stroke:#cf3f00;stroke-width:4.46px;"/></g><ellipse cx="274.923" cy="183.119" rx="68.206" ry="63.227" style="fill:none;stroke:#fff;stroke-width:4.45px;"/><text x="245.608px" y="214.938px" style="font-family:'ArialMT', 'Arial', sans-serif;font-size:91.351px;fill:#fff;">S</text><text x="356.636px" y="186.798px" style="font-family:'ArialMT', 'Arial', sans-serif;font-size:22.925px;fill:#fff;">K<tspan x="372.069px 378.497px 391.366px 406.799px 413.227px 432.502px 447.935px " y="186.798px 186.798px 186.798px 186.798px 186.798px 186.798px 186.798px ">ILS MAP</tspan></text></svg>