<?xml version="1.0" encoding="UTF-8" standalone="no"?>
<!DOCTYPE svg PUBLIC "-//W3C//DTD SVG 1.1//EN" "http://www.w3.org/Graphics/SVG/1.1/DTD/svg11.dtd">
<svg width="100%" height="100%" viewBox="0 0 800 300" version="1.1" xmlns="http://www.w3.org/2000/svg" xmlns:xlink="http://www.w3.org/1999/xlink" xml:space="preserve" xmlns:serif="http://www.serif.com/" style="fill-rule:evenodd;clip-rule:evenodd;stroke-linejoin:round;stroke-miterlimit:1.41421;">
    <g transform="matrix(0.623174,0,0,0.570724,291.467,40.3994)">
        <path d="M200.698,0C131.701,0 75.568,56.133 75.568,125.129L75.568,276.266C75.568,345.263 131.701,401.395 200.698,401.395C269.695,401.395 325.827,345.262 325.827,276.266L325.827,125.129C325.827,56.133 269.695,0 200.698,0ZM310.827,125.129L310.827,127.102C278.524,144.084 242.398,153.384 205.694,154.159L205.694,112.324C216.279,110.026 224.233,100.59 224.233,89.327L224.233,57.96C224.233,46.697 216.279,37.261 205.694,34.963L205.694,15.118C264.11,17.74 310.827,66.079 310.827,125.129ZM200.698,44.424C208.161,44.424 214.234,50.496 214.234,57.96L214.234,89.328C214.234,96.791 208.162,102.864 200.698,102.864C193.234,102.864 187.162,96.792 187.162,89.328L187.162,57.96C187.162,50.497 193.235,44.424 200.698,44.424ZM195.695,15.119L195.695,34.965C185.114,37.266 177.163,46.7 177.163,57.96L177.163,89.328C177.163,100.588 185.114,110.022 195.695,112.323L195.695,154.16C158.996,153.385 122.872,144.084 90.569,127.101L90.569,125.13C90.568,66.081 137.283,17.744 195.695,15.119ZM200.698,386.396C139.972,386.396 90.568,336.992 90.568,276.267L90.568,138.339C124.583,155.297 162.419,164.219 200.694,164.219C238.974,164.219 276.812,155.298 310.827,138.341L310.827,276.266C310.827,336.992 261.424,386.396 200.698,386.396Z" style="fill:white;fill-rule:nonzero;stroke:white;stroke-width:1.67px;"/>
    </g>
    <g transform="matrix(0.584664,0,0,0.6766,581.632,53.2766)">
        <path d="M265.171,125.577L185.171,45.577C180.29,40.696 172.374,40.696 167.493,45.577C162.611,50.459 162.611,58.373 167.493,63.255L226.154,121.916L12.5,121.916C5.597,121.916 0,127.513 0,134.416C0,141.318 5.597,146.916 12.5,146.916L226.154,146.916L167.495,205.577C162.613,210.459 162.613,218.373 167.495,223.255C169.935,225.694 173.135,226.916 176.334,226.916C179.533,226.916 182.732,225.694 185.173,223.255L265.171,143.255C270.053,138.373 270.053,130.459 265.171,125.577Z" style="fill:white;fill-rule:nonzero;"/>
    </g>
    <g transform="matrix(-0.642822,-0.00165145,0.00159905,-0.622428,249.863,229.675)">
        <path d="M265.171,125.577L185.171,45.577C180.29,40.696 172.374,40.696 167.493,45.577C162.611,50.459 162.611,58.373 167.493,63.255L226.154,121.916L12.5,121.916C5.597,121.916 0,127.513 0,134.416C0,141.318 5.597,146.916 12.5,146.916L226.154,146.916L167.495,205.577C162.613,210.459 162.613,218.373 167.495,223.255C169.935,225.694 173.135,226.916 176.334,226.916C179.533,226.916 182.732,225.694 185.173,223.255L265.171,143.255C270.053,138.373 270.053,130.459 265.171,125.577Z" style="fill:white;fill-rule:nonzero;"/>
    </g>
</svg>
