<?xml version="1.0" encoding="UTF-8" standalone="no"?>
<!DOCTYPE svg PUBLIC "-//W3C//DTD SVG 1.1//EN" "http://www.w3.org/Graphics/SVG/1.1/DTD/svg11.dtd">
<svg width="100%" height="100%" viewBox="0 0 512 512" version="1.1" xmlns="http://www.w3.org/2000/svg" xmlns:xlink="http://www.w3.org/1999/xlink" xml:space="preserve" style="fill-rule:evenodd;clip-rule:evenodd;stroke-linejoin:round;stroke-miterlimit:1.41421;">
    <g transform="matrix(1,0,0,1,9,0)">
        <path d="M477.863,366.934L435.199,366.934L435.199,51.199C435.199,41.773 427.555,34.133 418.129,34.133L332.797,34.133L332.797,17.066C332.797,7.641 325.156,0 315.73,0L298.664,0C289.238,0 281.598,7.641 281.598,17.066L281.598,34.133L221.863,34.133L221.863,17.066C221.863,7.641 214.223,0 204.797,0L187.73,0C178.305,0 170.664,7.641 170.664,17.066L170.664,34.133L93.863,34.133C84.437,34.133 76.797,41.773 76.797,51.199L76.797,148.863L29.258,105.105C22.215,99.219 11.887,99.523 5.203,105.813C-1.438,112.383 -1.762,123.004 4.461,129.973L76.797,210.902L76.797,366.934L34.129,366.934C24.707,366.934 17.062,374.574 17.062,384L17.062,401.066C17.062,410.492 24.707,418.133 34.129,418.133L81.687,418.133L55.883,489.098C53.977,494.328 54.746,500.16 57.937,504.723C61.133,509.281 66.348,512 71.918,512L104.957,512C112.129,511.984 118.527,507.504 120.992,500.77L151.039,418.133L230.398,418.133L230.398,477.867C230.398,487.293 238.039,494.934 247.465,494.934L264.531,494.934C273.957,494.934 281.598,487.293 281.598,477.867L281.598,418.133L360.957,418.133L391.004,500.77C393.469,507.504 399.867,511.984 407.039,512L440.078,512C445.645,512 450.863,509.281 454.055,504.723C457.25,500.16 458.016,494.328 456.113,489.098L430.309,418.133L477.863,418.133C487.289,418.133 494.93,410.492 494.93,401.066L494.93,384C494.93,374.574 487.289,366.934 477.863,366.934L477.863,366.934ZM214.645,366.934C207.441,364.578 162.129,348.16 162.129,307.199C162.082,301.117 161.559,295.043 160.562,289.043C164.328,289.73 168.148,290.094 171.977,290.133C176.34,290.137 180.695,289.691 184.965,288.801C191.422,287.879 197.566,285.43 202.887,281.652C205.305,279.66 206.434,276.504 205.836,273.43C205.234,270.355 203,267.859 200.012,266.922C197.668,266.27 195.418,265.332 193.305,264.133C185.301,259.242 178.805,252.238 174.531,243.891L174.531,243.805C184.434,247.793 193.828,252.949 202.512,259.164C207.219,262.629 211.668,266.434 215.812,270.551C242.379,297.113 281.316,311.246 337.969,315.035C339.031,315.492 340.176,315.73 341.332,315.734C341.91,315.68 342.484,315.563 343.039,315.383C354.531,316.031 365.965,316.238 376.973,316.238C386.422,316.238 395.57,316.082 404.215,315.945C409,315.871 413.598,315.801 418.113,315.758L418.113,366.934L214.645,366.934ZM125.812,226.477C129.016,223.273 133.355,221.473 137.883,221.473C142.41,221.473 146.754,223.273 149.953,226.477C152.684,230.047 154.449,234.266 155.074,238.719C155.391,239.992 155.707,241.281 156.047,242.516C156.852,245.668 157.98,248.73 159.418,251.648C163.555,259.789 169.301,267.008 176.305,272.871C169.918,273.422 163.488,272.742 157.359,270.863C145.355,266.801 134.531,259.848 125.848,250.617C122.641,247.418 120.836,243.078 120.828,238.551C120.824,234.023 122.617,229.68 125.812,226.477ZM418.129,298.727C413.539,298.77 408.84,298.836 403.957,298.914C387.281,299.188 368.672,299.418 349.863,298.605L349.863,229.719C367.707,227.125 383.426,216.609 392.633,201.105C403.359,199.305 412.098,198.074 418.129,197.316L418.129,298.727ZM349.863,212.48L349.863,182.734L364.43,168.168C367.664,164.816 367.617,159.496 364.328,156.203C361.035,152.914 355.711,152.867 352.363,156.102L341.332,167.133L330.297,156.102C326.949,152.867 321.625,152.914 318.336,156.203C315.043,159.496 314.996,164.816 318.23,168.168L332.797,182.734L332.797,212.48C311.336,208.098 296.68,188.18 298.879,166.387C301.082,144.594 319.426,128.008 341.332,128.008C363.234,128.008 381.578,144.594 383.781,166.387C385.984,188.18 371.324,208.098 349.863,212.48ZM308.59,220.578C315.887,225.371 324.152,228.492 332.797,229.719L332.797,297.488C284.02,293.402 250.398,281.004 227.898,258.492C226.309,256.914 224.602,255.41 222.914,253.891C250.402,240.215 279.082,229.059 308.59,220.57L308.59,220.578ZM298.664,17.066L315.73,17.066L315.73,34.133L298.664,34.133L298.664,17.066ZM187.73,17.066L204.797,17.066L204.797,34.133L187.73,34.133L187.73,17.066ZM93.863,51.199L418.129,51.199L418.129,180.113C413.719,180.652 407.523,181.477 399.852,182.672C405.441,155.641 391.773,128.297 366.801,116.539C341.824,104.781 312.043,111.668 294.766,133.199C277.488,154.73 277.219,185.293 294.105,207.129C264.398,216.199 235.598,228.02 208.082,242.441C195.664,234.195 182.145,227.742 167.926,223.266C166.52,219.98 164.52,216.98 162.02,214.426C155.469,207.883 146.531,204.301 137.273,204.512L93.863,164.574L93.863,51.199ZM10.836,124.246L17.773,117.727L118.551,210.492C116.832,211.645 115.223,212.957 113.746,214.41C113.371,214.785 113.117,215.262 112.766,215.613C111.855,216.344 111.109,217.262 110.574,218.301C109.914,219.152 109.285,220.074 108.719,221.012L91.371,201.59L17.199,118.563L10.836,124.246ZM93.863,230L104.035,241.391C104.625,249.434 108.07,256.996 113.746,262.723C121.937,271.129 131.516,278.059 142.059,283.203C143.941,291.066 144.949,299.117 145.062,307.199C145.312,331.285 157.52,353.672 177.629,366.934L93.863,366.934L93.863,230ZM104.957,494.934L71.918,494.934L99.836,418.133L132.879,418.133L104.957,494.934ZM264.531,477.867L247.465,477.867L247.465,418.133L264.531,418.133L264.531,477.867ZM440.07,494.934L407.039,494.934L379.117,418.133L412.156,418.133L440.07,494.934ZM418.129,401.066L34.129,401.066L34.129,384L477.863,384L477.863,401.066L418.129,401.066Z" style="fill:rgb(255,241,224);fill-rule:nonzero;"/>
    </g>
    <g transform="matrix(1,0,0,1,9,0)">
        <path d="M162.129,93.867C162.129,79.727 150.668,68.266 136.531,68.266C122.391,68.266 110.93,79.727 110.93,93.867C110.93,108.004 122.391,119.465 136.531,119.465C150.668,119.465 162.129,108.004 162.129,93.867ZM127.996,93.867C127.996,89.152 131.816,85.332 136.531,85.332C141.242,85.332 145.063,89.152 145.063,93.867C145.063,98.578 141.242,102.398 136.531,102.398C131.816,102.398 127.996,98.578 127.996,93.867Z" style="fill-rule:nonzero;"/>
    </g>
</svg>
