<?xml version="1.0" encoding="UTF-8" standalone="no"?>
<!DOCTYPE svg PUBLIC "-//W3C//DTD SVG 1.1//EN" "http://www.w3.org/Graphics/SVG/1.1/DTD/svg11.dtd">
<svg width="100%" height="100%" viewBox="0 0 800 800" version="1.1" xmlns="http://www.w3.org/2000/svg" xmlns:xlink="http://www.w3.org/1999/xlink" xml:space="preserve" xmlns:serif="http://www.serif.com/" style="fill-rule:evenodd;clip-rule:evenodd;stroke-miterlimit:1.41421;">
    <g>
        <path d="M206.431,303.175L237.586,303.175C245.813,303.175 249.761,304.307 252.579,318.152C265.754,382.892 326.385,432.189 399.96,432.189C473.745,432.189 535.125,382.725 547.449,317.588C549.563,306.418 556.468,303.175 561.135,303.175L593.49,303.175C602.479,303.175 609.828,310.525 609.828,319.514L609.828,470.738C609.828,479.726 602.479,487.077 593.49,487.077L206.431,487.077C197.443,487.077 190.091,479.726 190.091,470.738L190.091,319.514C190.091,310.525 197.443,303.175 206.431,303.175Z" style="fill:rgb(51,181,155);"/>
        <path d="M231.252,207.983C335.012,207.983 464.404,207.983 568.669,207.983C576.504,207.983 582.911,214.393 582.911,222.226L582.911,354.056C582.911,361.891 576.504,368.299 568.669,368.299L231.252,368.299C223.417,368.299 217.009,361.891 217.009,354.056L217.009,222.226C217.009,214.393 223.417,207.983 231.252,207.983Z" style="fill:white;"/>
        <path d="M238.642,217.883C335.554,217.883 463.896,217.883 561.279,217.883C568.598,217.883 574.581,223.869 574.581,231.185L574.581,354.313C574.581,361.631 568.596,367.617 561.279,367.617L238.642,367.617C231.326,367.617 225.339,361.632 225.339,354.313L225.339,231.185C225.339,223.867 231.324,217.883 238.642,217.883Z" style="fill:rgb(17,37,84);"/>
        <rect x="171.625" y="277.277" width="456.67" height="41.727" style="fill:white;"/>
        <path d="M609.828,319.004L609.828,470.738L602.138,508.08L399.96,568.958L198.521,508.716L190.091,470.738L190.091,319.004L609.828,319.004Z" style="fill:rgb(17,37,84);"/>
        <path d="M365.895,319.005L430.548,319.005L524.93,352.75C504.272,393.631 456.122,422.297 400.014,422.297C342.063,422.297 292.605,391.713 273.158,348.679L365.895,319.005Z" style="fill:rgb(166,179,176);"/>
        <path d="M601.158,513.067L575.335,597.604C563.531,636.249 538.034,642.984 524.284,642.984L276.725,642.984C258.686,642.984 235.924,631.166 225.673,597.604L198.521,508.717C195.903,500.141 199.658,494.934 210.904,494.934L590.54,494.934C600.02,494.934 604.344,502.635 601.158,513.067Z" style="fill:rgb(17,37,84);"/>
        <path d="M280.652,624.652C259.984,624.652 254.767,621.81 246.462,597.12L221.745,523.635C219.625,517.325 222.509,513.265 230.068,513.265C343.33,513.265 456.59,513.265 569.851,513.265C577.41,513.265 580.295,517.325 578.174,523.635L553.457,597.12C545.152,621.81 537.001,624.652 519.267,624.652L280.652,624.652Z" style="fill:white;"/>
        <path d="M284.375,624.652C274.302,624.652 256.42,623.155 252.625,603.246L241.73,546.112C240.76,541.025 242.335,538.05 248.335,538.05L551.584,538.05C557.584,538.05 559.159,541.025 558.189,546.112L547.294,603.246C543.498,623.155 525.485,624.652 515.543,624.652L284.375,624.652Z" style="fill:rgb(17,37,84);"/>
        <path d="M206.431,307.733L237.586,307.733C245.813,307.733 249.763,308.865 252.579,322.711C265.754,387.448 326.385,432.189 399.96,432.189C473.745,432.189 535.125,387.281 547.449,322.146C549.563,310.975 556.468,307.733 561.135,307.733L593.49,307.733C602.479,307.733 609.828,315.084 609.828,324.071L609.828,470.738C609.828,479.725 602.479,487.077 593.49,487.077L206.431,487.077C197.443,487.077 190.091,479.726 190.091,470.738L190.091,324.071C190.091,315.083 197.443,307.733 206.431,307.733Z" style="fill:white;"/>
        <path d="M238.296,307.736C246.043,307.809 249.844,309.27 252.579,322.711C265.754,387.448 326.385,432.189 399.961,432.189C473.745,432.189 535.125,387.281 547.449,322.145C549.563,310.976 556.468,307.732 561.135,307.732L561.623,307.732C556.454,387.171 486.057,445.543 399.96,445.543C313.863,445.543 243.468,387.174 238.296,307.736Z" style="fill:white;"/>
        <path d="M158.655,319.004C162.432,319.004 165.513,309.632 165.513,298.141C165.513,286.649 162.432,277.277 158.655,277.277C154.877,277.277 151.796,286.649 151.796,298.141C151.796,309.632 154.877,319.004 158.655,319.004Z" style="fill:rgb(17,84,71);"/>
        <rect x="158.654" y="264.866" width="12.971" height="66.551" style="fill:white;"/>
        <path d="M641.267,319.004C645.044,319.004 648.125,309.632 648.125,298.141C648.125,286.649 645.044,277.277 641.267,277.277C637.489,277.277 634.408,286.649 634.408,298.141C634.408,309.632 637.489,319.004 641.267,319.004Z" style="fill:rgb(17,84,71);"/>
        <rect x="628.295" y="264.866" width="12.971" height="66.551" style="fill:white;"/>
        <path d="M171.625,298.141L628.295,298.141" style="fill:none;stroke:rgb(128,143,140);stroke-width:4.8px;"/>
        <path d="M268.189,284.798L268.189,311.483" style="fill:none;stroke:rgb(128,143,140);stroke-width:4.8px;"/>
        <path d="M531.729,284.798L531.729,311.483" style="fill:none;stroke:rgb(128,143,140);stroke-width:4.8px;"/>
        <path d="M270.35,542.793L280.988,542.793C282.893,542.793 284.451,544.351 284.451,546.256L284.451,555.105C284.451,557.01 282.893,558.568 280.988,558.568L270.35,558.568C268.445,558.568 266.887,557.01 266.887,555.105L266.887,546.256C266.887,544.351 268.445,542.793 270.35,542.793Z" style="fill:rgb(216,230,227);"/>
        <path d="M258.937,563.24L269.575,563.24C271.48,563.24 273.038,564.798 273.038,566.702L273.038,575.553C273.038,577.457 271.48,579.016 269.575,579.016L258.937,579.016C257.032,579.016 255.475,577.457 255.475,575.553L255.475,566.702C255.475,564.798 257.032,563.24 258.937,563.24Z" style="fill:rgb(216,230,227);"/>
        <path d="M270.35,583.686L280.988,583.686C282.893,583.686 284.451,585.244 284.451,587.149L284.451,596C284.451,597.904 282.893,599.462 280.988,599.462L270.35,599.462C268.445,599.462 266.887,597.904 266.887,596L266.887,587.149C266.887,585.244 268.445,583.686 270.35,583.686Z" style="fill:rgb(216,230,227);"/>
        <path d="M292.967,542.793L303.605,542.793C305.51,542.793 307.068,544.351 307.068,546.256L307.068,555.105C307.068,557.01 305.51,558.568 303.605,558.568L292.967,558.568C291.063,558.568 289.504,557.01 289.504,555.105L289.504,546.256C289.504,544.351 291.063,542.793 292.967,542.793Z" style="fill:rgb(216,230,227);"/>
        <path d="M281.555,563.24L292.193,563.24C294.097,563.24 295.655,564.798 295.655,566.702L295.655,575.553C295.655,577.457 294.097,579.016 292.193,579.016L281.555,579.016C279.65,579.016 278.092,577.457 278.092,575.553L278.092,566.702C278.092,564.798 279.65,563.24 281.555,563.24Z" style="fill:rgb(216,230,227);"/>
        <path d="M292.967,583.686L303.605,583.686C305.51,583.686 307.068,585.244 307.068,587.149L307.068,596C307.068,597.904 305.51,599.462 303.605,599.462L292.967,599.462C291.063,599.462 289.504,597.904 289.504,596L289.504,587.149C289.504,585.244 291.063,583.686 292.967,583.686Z" style="fill:rgb(216,230,227);"/>
        <path d="M281.555,604.133L292.193,604.133C294.097,604.133 295.655,605.691 295.655,607.596L295.655,616.446C295.655,618.351 294.097,619.908 292.193,619.908L281.555,619.908C279.65,619.908 278.092,618.351 278.092,616.446L278.092,607.596C278.092,605.691 279.65,604.133 281.555,604.133Z" style="fill:rgb(216,230,227);"/>
        <path d="M315.584,542.793L326.223,542.793C328.127,542.793 329.686,544.351 329.686,546.256L329.686,555.105C329.686,557.01 328.127,558.568 326.223,558.568L315.584,558.568C313.68,558.568 312.122,557.01 312.122,555.105L312.122,546.256C312.122,544.351 313.68,542.793 315.584,542.793Z" style="fill:rgb(216,230,227);"/>
        <path d="M304.172,563.24L314.81,563.24C316.714,563.24 318.272,564.798 318.272,566.702L318.272,575.553C318.272,577.457 316.714,579.016 314.81,579.016L304.172,579.016C302.267,579.016 300.709,577.457 300.709,575.553L300.709,566.702C300.709,564.798 302.267,563.24 304.172,563.24Z" style="fill:rgb(216,230,227);"/>
        <path d="M315.584,583.686L326.223,583.686C328.127,583.686 329.686,585.244 329.686,587.149L329.686,596C329.686,597.904 328.127,599.462 326.223,599.462L315.584,599.462C313.68,599.462 312.122,597.904 312.122,596L312.122,587.149C312.122,585.244 313.68,583.686 315.584,583.686Z" style="fill:rgb(216,230,227);"/>
        <path d="M338.202,542.793L348.84,542.793C350.744,542.793 352.303,544.351 352.303,546.256L352.303,555.105C352.303,557.01 350.744,558.568 348.84,558.568L338.202,558.568C336.297,558.568 334.739,557.01 334.739,555.105L334.739,546.256C334.739,544.351 336.297,542.793 338.202,542.793Z" style="fill:rgb(216,230,227);"/>
        <path d="M326.789,563.24L337.427,563.24C339.332,563.24 340.89,564.798 340.89,566.702L340.89,575.553C340.89,577.457 339.332,579.016 337.427,579.016L326.789,579.016C324.885,579.016 323.326,577.457 323.326,575.553L323.326,566.702C323.326,564.798 324.885,563.24 326.789,563.24Z" style="fill:rgb(216,230,227);"/>
        <path d="M338.202,583.686L348.84,583.686C350.744,583.686 352.303,585.244 352.303,587.149L352.303,596C352.303,597.904 350.744,599.462 348.84,599.462L338.202,599.462C336.297,599.462 334.739,597.904 334.739,596L334.739,587.149C334.739,585.244 336.297,583.686 338.202,583.686Z" style="fill:rgb(216,230,227);"/>
        <path d="M360.819,542.793L371.458,542.793C373.362,542.793 374.92,544.351 374.92,546.256L374.92,555.105C374.92,557.01 373.362,558.568 371.458,558.568L360.819,558.568C358.915,558.568 357.356,557.01 357.356,555.105L357.356,546.256C357.356,544.351 358.915,542.793 360.819,542.793Z" style="fill:rgb(216,230,227);"/>
        <path d="M349.406,563.24L360.044,563.24C361.949,563.24 363.507,564.798 363.507,566.702L363.507,575.553C363.507,577.457 361.949,579.016 360.044,579.016L349.406,579.016C347.502,579.016 345.943,577.457 345.943,575.553L345.943,566.702C345.943,564.798 347.502,563.24 349.406,563.24Z" style="fill:rgb(216,230,227);"/>
        <path d="M360.819,583.686L371.458,583.686C373.362,583.686 374.92,585.244 374.92,587.149L374.92,596C374.92,597.904 373.362,599.462 371.458,599.462L360.819,599.462C358.915,599.462 357.356,597.904 357.356,596L357.356,587.149C357.356,585.244 358.915,583.686 360.819,583.686Z" style="fill:rgb(216,230,227);"/>
        <path d="M383.437,542.793L394.074,542.793C395.979,542.793 397.537,544.351 397.537,546.256L397.537,555.105C397.537,557.01 395.979,558.568 394.074,558.568L383.437,558.568C381.532,558.568 379.974,557.01 379.974,555.105L379.974,546.256C379.974,544.351 381.532,542.793 383.437,542.793Z" style="fill:rgb(216,230,227);"/>
        <path d="M372.023,563.24L382.662,563.24C384.566,563.24 386.125,564.798 386.125,566.702L386.125,575.553C386.125,577.457 384.566,579.016 382.662,579.016L372.023,579.016C370.119,579.016 368.561,577.457 368.561,575.553L368.561,566.702C368.561,564.798 370.119,563.24 372.023,563.24Z" style="fill:rgb(216,230,227);"/>
        <path d="M383.437,583.686L394.074,583.686C395.979,583.686 397.537,585.244 397.537,587.149L397.537,596C397.537,597.904 395.979,599.462 394.074,599.462L383.437,599.462C381.532,599.462 379.974,597.904 379.974,596L379.974,587.149C379.974,585.244 381.532,583.686 383.437,583.686Z" style="fill:rgb(216,230,227);"/>
        <path d="M406.054,542.793L416.691,542.793C418.597,542.793 420.154,544.351 420.154,546.256L420.154,555.105C420.154,557.01 418.597,558.568 416.691,558.568L406.054,558.568C404.149,558.568 402.591,557.01 402.591,555.105L402.591,546.256C402.591,544.351 404.149,542.793 406.054,542.793Z" style="fill:rgb(216,230,227);"/>
        <path d="M394.641,563.24L405.279,563.24C407.184,563.24 408.742,564.798 408.742,566.702L408.742,575.553C408.742,577.457 407.184,579.016 405.279,579.016L394.641,579.016C392.736,579.016 391.178,577.457 391.178,575.553L391.178,566.702C391.178,564.798 392.736,563.24 394.641,563.24Z" style="fill:rgb(216,230,227);"/>
        <path d="M406.054,583.686L416.691,583.686C418.597,583.686 420.154,585.244 420.154,587.149L420.154,596C420.154,597.904 418.597,599.462 416.691,599.462L406.054,599.462C404.149,599.462 402.591,597.904 402.591,596L402.591,587.149C402.591,585.244 404.149,583.686 406.054,583.686Z" style="fill:rgb(216,230,227);"/>
        <path d="M428.671,542.793L439.309,542.793C441.213,542.793 442.771,544.351 442.771,546.256L442.771,555.105C442.771,557.01 441.213,558.568 439.309,558.568L428.671,558.568C426.767,558.568 425.208,557.01 425.208,555.105L425.208,546.256C425.208,544.351 426.767,542.793 428.671,542.793Z" style="fill:rgb(216,230,227);"/>
        <path d="M417.258,563.24L427.896,563.24C429.801,563.24 431.359,564.798 431.359,566.702L431.359,575.553C431.359,577.457 429.801,579.016 427.896,579.016L417.258,579.016C415.354,579.016 413.795,577.457 413.795,575.553L413.795,566.702C413.795,564.798 415.354,563.24 417.258,563.24Z" style="fill:rgb(216,230,227);"/>
        <path d="M428.671,583.686L439.309,583.686C441.213,583.686 442.771,585.244 442.771,587.149L442.771,596C442.771,597.904 441.213,599.462 439.309,599.462L428.671,599.462C426.767,599.462 425.208,597.904 425.208,596L425.208,587.149C425.208,585.244 426.767,583.686 428.671,583.686Z" style="fill:rgb(216,230,227);"/>
        <path d="M451.288,542.793L461.927,542.793C463.831,542.793 465.389,544.351 465.389,546.256L465.389,555.105C465.389,557.01 463.831,558.568 461.927,558.568L451.288,558.568C449.384,558.568 447.825,557.01 447.825,555.105L447.825,546.256C447.825,544.351 449.384,542.793 451.288,542.793Z" style="fill:rgb(216,230,227);"/>
        <path d="M439.875,563.24L450.514,563.24C452.418,563.24 453.977,564.798 453.977,566.702L453.977,575.553C453.977,577.457 452.418,579.016 450.514,579.016L439.875,579.016C437.971,579.016 436.413,577.457 436.413,575.553L436.413,566.702C436.413,564.798 437.971,563.24 439.875,563.24Z" style="fill:rgb(216,230,227);"/>
        <path d="M451.288,583.686L461.927,583.686C463.831,583.686 465.389,585.244 465.389,587.149L465.389,596C465.389,597.904 463.831,599.462 461.927,599.462L451.288,599.462C449.384,599.462 447.825,597.904 447.825,596L447.825,587.149C447.825,585.244 449.384,583.686 451.288,583.686Z" style="fill:rgb(216,230,227);"/>
        <path d="M473.905,542.793L484.544,542.793C486.448,542.793 488.007,544.351 488.007,546.256L488.007,555.105C488.007,557.01 486.448,558.568 484.544,558.568L473.905,558.568C472.001,558.568 470.442,557.01 470.442,555.105L470.442,546.256C470.442,544.351 472.001,542.793 473.905,542.793Z" style="fill:rgb(216,230,227);"/>
        <path d="M462.493,563.24L473.131,563.24C475.035,563.24 476.594,564.798 476.594,566.702L476.594,575.553C476.594,577.457 475.035,579.016 473.131,579.016L462.493,579.016C460.588,579.016 459.03,577.457 459.03,575.553L459.03,566.702C459.03,564.798 460.588,563.24 462.493,563.24Z" style="fill:rgb(216,230,227);"/>
        <path d="M473.905,583.686L484.544,583.686C486.448,583.686 488.007,585.244 488.007,587.149L488.007,596C488.007,597.904 486.448,599.462 484.544,599.462L473.905,599.462C472.001,599.462 470.442,597.904 470.442,596L470.442,587.149C470.442,585.244 472.001,583.686 473.905,583.686Z" style="fill:rgb(216,230,227);"/>
        <path d="M496.522,542.793L507.161,542.793C509.065,542.793 510.624,544.351 510.624,546.256L510.624,555.105C510.624,557.01 509.065,558.568 507.161,558.568L496.522,558.568C494.618,558.568 493.06,557.01 493.06,555.105L493.06,546.256C493.06,544.351 494.618,542.793 496.522,542.793Z" style="fill:rgb(216,230,227);"/>
        <path d="M485.11,563.24L495.748,563.24C497.652,563.24 499.211,564.798 499.211,566.702L499.211,575.553C499.211,577.457 497.652,579.016 495.748,579.016L485.11,579.016C483.206,579.016 481.647,577.457 481.647,575.553L481.647,566.702C481.647,564.798 483.206,563.24 485.11,563.24Z" style="fill:rgb(216,230,227);"/>
        <path d="M496.522,583.686L507.161,583.686C509.065,583.686 510.624,585.244 510.624,587.149L510.624,596C510.624,597.904 509.065,599.462 507.161,599.462L496.522,599.462C494.618,599.462 493.06,597.904 493.06,596L493.06,587.149C493.06,585.244 494.618,583.686 496.522,583.686Z" style="fill:rgb(216,230,227);"/>
        <path d="M304.172,604.133L495.748,604.133C497.653,604.133 499.211,605.691 499.211,607.596L499.211,616.446C499.211,618.351 497.653,619.908 495.748,619.908L304.172,619.908C302.267,619.908 300.709,618.351 300.709,616.446L300.709,607.596C300.709,605.691 302.267,604.133 304.172,604.133Z" style="fill:rgb(216,230,227);"/>
        <path d="M519.14,542.793L529.778,542.793C531.683,542.793 533.241,544.351 533.241,546.256L533.241,555.105C533.241,557.01 531.683,558.568 529.778,558.568L519.14,558.568C517.235,558.568 515.677,557.01 515.677,555.105L515.677,546.256C515.677,544.351 517.235,542.793 519.14,542.793Z" style="fill:rgb(216,230,227);"/>
        <path d="M507.728,563.24L518.365,563.24C520.27,563.24 521.828,564.798 521.828,566.702L521.828,575.553C521.828,577.457 520.27,579.016 518.365,579.016L507.728,579.016C505.823,579.016 504.265,577.457 504.265,575.553L504.265,566.702C504.265,564.798 505.823,563.24 507.728,563.24Z" style="fill:rgb(216,230,227);"/>
        <path d="M519.14,583.686L529.778,583.686C531.683,583.686 533.241,585.244 533.241,587.149L533.241,596C533.241,597.904 531.683,599.462 529.778,599.462L519.14,599.462C517.235,599.462 515.677,597.904 515.677,596L515.677,587.149C515.677,585.244 517.235,583.686 519.14,583.686Z" style="fill:rgb(216,230,227);"/>
        <path d="M507.728,604.133L518.365,604.133C520.27,604.133 521.828,605.691 521.828,607.596L521.828,616.446C521.828,618.351 520.27,619.908 518.365,619.908L507.728,619.908C505.823,619.908 504.265,618.351 504.265,616.446L504.265,607.596C504.265,605.691 505.823,604.133 507.728,604.133Z" style="fill:rgb(216,230,227);"/>
        <path d="M530.345,563.24L540.982,563.24C542.888,563.24 544.445,564.798 544.445,566.702L544.445,575.553C544.445,577.457 542.888,579.016 540.982,579.016L530.345,579.016C528.44,579.016 526.882,577.457 526.882,575.553L526.882,566.702C526.882,564.798 528.44,563.24 530.345,563.24Z" style="fill:rgb(216,230,227);"/>
        <path d="M506.517,346.167C488.904,381.021 447.852,405.462 400.014,405.462C350.604,405.462 308.438,379.387 291.857,342.695L365.895,319.005L430.548,319.005L506.517,346.167Z" style="fill:rgb(128,143,140);"/>
        <path d="M449.341,325.724C441.184,341.866 422.17,353.185 400.014,353.185C377.13,353.185 357.601,341.109 349.921,324.116L349.921,319.005L449.253,319.005L449.341,325.724Z" style="fill:rgb(17,37,84);"/>
        <path d="M449.341,325.724C441.184,341.866 422.17,353.185 400.014,353.185C377.13,353.185 357.601,341.109 349.921,324.116L358.807,321.272C365.124,335.252 381.189,345.185 400.014,345.185C418.239,345.185 433.88,335.875 440.59,322.596L449.341,325.724Z" style="fill:rgb(166,179,176);"/>
        <path d="M360.485,324.51L277.498,357.203C277.299,356.852 277.102,356.501 276.907,356.148L359.892,323.456C360.084,323.809 360.281,324.162 360.485,324.51Z" style="fill:rgb(216,230,227);fill-rule:nonzero;"/>
        <path d="M362.014,326.889L282.086,364.592C281.859,364.258 281.637,363.922 281.414,363.586L361.337,325.884C361.557,326.222 361.782,326.557 362.014,326.889Z" style="fill:rgb(216,230,227);fill-rule:nonzero;"/>
        <path d="M363.709,329.123L287.196,371.546C286.944,371.229 286.699,370.91 286.451,370.592L362.956,328.173C363.201,328.492 363.452,328.809 363.709,329.123Z" style="fill:rgb(216,230,227);fill-rule:nonzero;"/>
        <path d="M365.548,331.207L292.763,378.039C292.488,377.741 292.216,377.44 291.945,377.141L364.725,330.312C364.993,330.615 365.269,330.912 365.548,331.207Z" style="fill:rgb(216,230,227);fill-rule:nonzero;"/>
        <path d="M367.508,333.137L298.716,384.059C298.422,383.78 298.125,383.504 297.833,383.223L366.625,332.301C366.915,332.583 367.208,332.861 367.508,333.137Z" style="fill:rgb(216,230,227);fill-rule:nonzero;"/>
        <path d="M369.57,334.91L304.991,389.603C304.679,389.346 304.37,389.084 304.061,388.823L368.634,334.135C368.941,334.396 369.253,334.655 369.57,334.91Z" style="fill:rgb(216,230,227);fill-rule:nonzero;"/>
        <path d="M371.717,336.527L311.54,394.669C311.212,394.431 310.884,394.193 310.559,393.953L370.734,335.813C371.057,336.056 371.385,336.293 371.717,336.527Z" style="fill:rgb(216,230,227);fill-rule:nonzero;"/>
        <path d="M373.932,337.993L318.306,399.268C317.964,399.051 317.625,398.829 317.286,398.609L372.908,337.34C373.246,337.561 373.587,337.779 373.932,337.993Z" style="fill:rgb(216,230,227);fill-rule:nonzero;"/>
        <path d="M376.202,339.309L325.253,403.402C324.9,403.205 324.544,403.011 324.193,402.81L375.143,338.717C375.493,338.918 375.845,339.116 376.202,339.309Z" style="fill:rgb(216,230,227);fill-rule:nonzero;"/>
        <path d="M378.516,340.478L332.339,407.092C331.976,406.916 331.614,406.738 331.253,406.559L377.427,339.949C377.786,340.13 378.15,340.306 378.516,340.478Z" style="fill:rgb(216,230,227);fill-rule:nonzero;"/>
        <path d="M380.862,341.508L339.534,410.35C339.163,410.193 338.795,410.031 338.425,409.873L379.749,341.039C380.117,341.199 380.488,341.355 380.862,341.508Z" style="fill:rgb(216,230,227);fill-rule:nonzero;"/>
        <path d="M383.235,342.401L346.819,413.182C346.44,413.045 346.063,412.906 345.686,412.767L382.1,341.991C382.475,342.132 382.854,342.269 383.235,342.401Z" style="fill:rgb(216,230,227);fill-rule:nonzero;"/>
        <path d="M385.625,343.162L354.165,415.606C353.78,415.491 353.397,415.373 353.015,415.254L384.475,342.812C384.855,342.934 385.239,343.051 385.625,343.162Z" style="fill:rgb(216,230,227);fill-rule:nonzero;"/>
        <path d="M388.029,343.797L361.558,417.641C361.169,417.543 360.781,417.445 360.394,417.347L386.865,343.505C387.25,343.606 387.639,343.704 388.029,343.797Z" style="fill:rgb(216,230,227);fill-rule:nonzero;"/>
        <path d="M390.445,344.309L368.986,419.293C368.593,419.215 368.2,419.136 367.807,419.056L389.265,344.072C389.657,344.155 390.05,344.234 390.445,344.309Z" style="fill:rgb(216,230,227);fill-rule:nonzero;"/>
        <path d="M392.865,344.699L376.435,420.576C376.038,420.518 375.643,420.455 375.248,420.393L391.676,344.521C392.071,344.585 392.467,344.644 392.865,344.699Z" style="fill:rgb(216,230,227);fill-rule:nonzero;"/>
        <path d="M395.287,344.973L383.897,421.498C383.498,421.459 383.102,421.413 382.704,421.371L394.093,344.852C394.489,344.897 394.888,344.937 395.287,344.973Z" style="fill:rgb(216,230,227);fill-rule:nonzero;"/>
        <path d="M397.711,345.134L391.367,422.064C390.967,422.043 390.568,422.019 390.17,421.996L396.513,345.07C396.911,345.097 397.31,345.117 397.711,345.134Z" style="fill:rgb(216,230,227);fill-rule:nonzero;"/>
        <path d="M400.131,345.184L398.837,422.287C398.438,422.284 398.04,422.283 397.642,422.277L398.937,345.174C399.295,345.181 399.654,345.185 400.014,345.185L400.131,345.184Z" style="fill:rgb(216,230,227);fill-rule:nonzero;"/>
        <path d="M402.555,345.125L406.31,422.171C405.911,422.185 405.513,422.203 405.113,422.217L401.358,345.167C401.758,345.156 402.157,345.144 402.555,345.125Z" style="fill:rgb(216,230,227);fill-rule:nonzero;"/>
        <path d="M404.975,344.953L413.777,421.712C413.38,421.746 412.982,421.779 412.583,421.81L403.78,345.051C404.18,345.021 404.578,344.99 404.975,344.953Z" style="fill:rgb(216,230,227);fill-rule:nonzero;"/>
        <path d="M407.389,344.668L421.235,420.904C420.841,420.957 420.445,421.007 420.049,421.057L406.202,344.821C406.6,344.774 406.995,344.724 407.389,344.668Z" style="fill:rgb(216,230,227);fill-rule:nonzero;"/>
        <path d="M409.801,344.267L428.684,419.738C428.29,419.81 427.896,419.879 427.5,419.947L408.619,344.477C409.015,344.411 409.409,344.342 409.801,344.267Z" style="fill:rgb(216,230,227);fill-rule:nonzero;"/>
        <path d="M412.202,343.748L436.106,418.207C435.717,418.298 435.327,418.387 434.936,418.475L411.032,344.016C411.425,343.931 411.814,343.842 412.202,343.748Z" style="fill:rgb(216,230,227);fill-rule:nonzero;"/>
        <path d="M414.596,343.106L443.501,416.3C443.114,416.41 442.729,416.519 442.341,416.627L413.435,343.433C413.823,343.328 414.211,343.221 414.596,343.106Z" style="fill:rgb(216,230,227);fill-rule:nonzero;"/>
        <path d="M416.97,342.34L450.85,414.005C450.469,414.135 450.09,414.267 449.708,414.393L415.827,342.725C416.211,342.601 416.592,342.473 416.97,342.34Z" style="fill:rgb(216,230,227);fill-rule:nonzero;"/>
        <path d="M419.324,341.443L458.139,411.311C457.766,411.46 457.393,411.608 457.018,411.755L418.203,341.889C418.58,341.744 418.953,341.596 419.324,341.443Z" style="fill:rgb(216,230,227);fill-rule:nonzero;"/>
        <path d="M421.653,340.412L465.354,408.205C464.987,408.375 464.618,408.539 464.251,408.706L420.555,340.919C420.924,340.755 421.29,340.585 421.653,340.412Z" style="fill:rgb(216,230,227);fill-rule:nonzero;"/>
        <path d="M423.947,339.245L472.459,404.666C472.104,404.855 471.748,405.046 471.39,405.232L422.876,339.809C423.236,339.625 423.594,339.437 423.947,339.245Z" style="fill:rgb(216,230,227);fill-rule:nonzero;"/>
        <path d="M426.195,337.932L479.438,400.691C479.094,400.9 478.746,401.108 478.398,401.316L425.158,338.559C425.508,338.354 425.854,338.144 426.195,337.932Z" style="fill:rgb(216,230,227);fill-rule:nonzero;"/>
        <path d="M428.391,336.475L486.25,396.26C485.918,396.49 485.586,396.721 485.251,396.948L427.39,337.161C427.728,336.935 428.062,336.707 428.391,336.475Z" style="fill:rgb(216,230,227);fill-rule:nonzero;"/>
        <path d="M430.515,334.865L492.86,391.369C492.544,391.619 492.223,391.865 491.903,392.113L429.562,335.614C429.884,335.368 430.201,335.118 430.515,334.865Z" style="fill:rgb(216,230,227);fill-rule:nonzero;"/>
        <path d="M432.559,333.103L499.216,385.999C498.915,386.27 498.614,386.541 498.311,386.81L431.652,333.913C431.959,333.646 432.262,333.377 432.559,333.103Z" style="fill:rgb(216,230,227);fill-rule:nonzero;"/>
        <path d="M434.501,331.189L505.268,380.158C504.987,380.448 504.707,380.739 504.423,381.027L433.652,332.057C433.939,331.771 434.224,331.482 434.501,331.189Z" style="fill:rgb(216,230,227);fill-rule:nonzero;"/>
        <path d="M436.322,329.122L510.959,373.844C510.699,374.153 510.438,374.462 510.176,374.769L435.539,330.047C435.806,329.742 436.066,329.434 436.322,329.122Z" style="fill:rgb(216,230,227);fill-rule:nonzero;"/>
        <path d="M438.003,326.906L516.223,367.067C515.987,367.394 515.75,367.72 515.511,368.045L437.293,327.885C437.536,327.561 437.772,327.235 438.003,326.906Z" style="fill:rgb(216,230,227);fill-rule:nonzero;"/>
        <path d="M439.522,324.547L520.991,359.846C520.783,360.189 520.572,360.532 520.359,360.874L438.892,325.576C439.108,325.236 439.318,324.893 439.522,324.547Z" style="fill:rgb(216,230,227);fill-rule:nonzero;"/>
        <path d="M440.873,322.064L525.213,352.22C525.028,352.576 524.84,352.932 524.651,353.287L440.312,323.133C440.505,322.779 440.692,322.423 440.873,322.064Z" style="fill:rgb(216,230,227);fill-rule:nonzero;"/>
        <path d="M359.146,321.997L273.493,349.41C273.317,349.047 273.143,348.684 272.972,348.319L358.623,320.906C358.792,321.272 358.964,321.637 359.146,321.997Z" style="fill:rgb(216,230,227);fill-rule:nonzero;"/>
        <path d="M288.515,369.446L288.515,370.814L287.196,371.546C286.944,371.229 286.699,370.91 286.451,370.592L288.515,369.446ZM288.515,360.236L288.515,361.559L282.086,364.592C281.859,364.258 281.637,363.922 281.414,363.586L288.515,360.236ZM288.515,343.345L288.515,344.602L273.493,349.41C273.317,349.047 273.143,348.684 272.972,348.319L288.515,343.345ZM288.515,352.863L277.498,357.203C277.299,356.852 277.102,356.501 276.907,356.148L288.515,351.576L288.515,352.863ZM288.515,344.602L288.515,343.345L291.705,342.323L291.857,342.695C291.967,342.939 292.083,343.182 292.196,343.424L288.515,344.602ZM297.923,383.157L297.923,383.309L297.833,383.223L297.923,383.157ZM297.923,373.295L297.923,374.719L292.763,378.039C292.488,377.741 292.216,377.44 291.945,377.141L297.923,373.295ZM297.923,364.23L297.923,365.598L288.515,370.814L288.515,369.446L297.923,364.23ZM297.923,355.798L297.923,357.122L288.515,361.559L288.515,360.236L297.923,355.798ZM295.616,350.065L288.515,352.863L288.515,351.576L295.024,349.012C295.219,349.364 295.417,349.715 295.616,350.065ZM297.923,357.122L297.923,355.798L298.863,355.354C299.085,355.691 299.309,356.027 299.536,356.36L297.923,357.122ZM297.923,365.598L297.923,364.23L303.153,361.33C303.4,361.648 303.648,361.968 303.9,362.284L297.923,365.598ZM306.356,386.879L306.356,388.447L304.991,389.603C304.679,389.346 304.37,389.084 304.061,388.823L306.356,386.879ZM306.356,376.914L306.356,378.402L298.716,384.059C298.452,383.809 298.186,383.56 297.923,383.309L297.923,383.157L306.356,376.914ZM306.356,367.868L306.356,369.293L297.923,374.719L297.923,373.295L306.356,367.868ZM306.356,369.293L306.356,367.868L307.834,366.917C308.105,367.218 308.377,367.518 308.652,367.815L306.356,369.293ZM312.146,392.419L312.146,394.082L311.54,394.669C311.212,394.431 310.884,394.193 310.559,393.953L312.146,392.419ZM312.146,381.975L312.146,383.544L306.356,388.447L306.356,386.879L312.146,381.975ZM312.146,372.629L312.146,374.117L306.356,378.402L306.356,376.914L312.146,372.629ZM312.146,374.117L312.146,372.629L312.852,372.105C313.144,372.387 313.439,372.664 313.734,372.941L312.146,374.117ZM318.188,397.615L318.188,399.192C317.886,398.999 317.586,398.804 317.286,398.609L318.188,397.615ZM318.188,386.581L318.188,388.245L312.146,394.082L312.146,392.419L318.188,386.581ZM318.188,376.908L318.188,378.427L312.146,383.544L312.146,381.975L318.158,376.884L318.188,376.908ZM318.188,378.427L318.188,376.908C318.488,377.161 318.788,377.413 319.09,377.663L318.188,378.427ZM324.435,402.507L324.435,402.947L324.193,402.81L324.435,402.507ZM324.435,390.734L324.435,392.517L318.306,399.268L318.188,399.192L318.188,397.615L324.435,390.734ZM324.435,381.801L324.435,382.209L318.188,388.245L318.188,386.581L323.695,381.261C323.94,381.441 324.188,381.621 324.435,381.801ZM324.435,382.209L324.435,381.801L324.677,381.976L324.435,382.209ZM324.435,392.517L330.451,385.891C330.108,385.673 329.769,385.453 329.43,385.232L324.435,390.734L324.435,392.517ZM333.814,402.863L331.253,406.559C331.614,406.738 331.976,406.916 332.339,407.092L333.814,404.963L333.814,402.863ZM333.814,390.707L333.814,392.633L325.253,403.402C324.981,403.25 324.707,403.1 324.435,402.947L324.435,402.507L333.814,390.707ZM333.814,392.633L333.814,390.707L335.317,388.818C335.668,389.018 336.022,389.213 336.376,389.41L333.814,392.633ZM340.422,406.547L340.422,408.871L339.534,410.35C339.163,410.193 338.795,410.031 338.425,409.873L340.422,406.547ZM340.422,393.331L340.422,395.431L333.814,404.963L333.814,402.863L340.422,393.331ZM340.422,395.431L342.419,392.55C342.056,392.374 341.694,392.196 341.333,392.017L340.422,393.331L340.422,395.431ZM347.122,409.976L347.122,412.594L346.819,413.182C346.44,413.045 346.063,412.906 345.686,412.767L347.122,409.976ZM347.122,395.388L347.122,397.712L340.422,408.871L340.422,406.547L347.122,395.388ZM347.122,397.712L348.557,395.32C348.185,395.164 347.816,395.004 347.447,394.845L347.122,395.388L347.122,397.712ZM353.892,413.234L353.892,415.523L353.015,415.254L353.892,413.234ZM353.892,397.409L353.892,399.434L347.122,412.594L347.122,409.976L353.635,397.315L353.892,397.409ZM353.892,399.434L353.892,397.409C354.184,397.517 354.476,397.624 354.769,397.728L353.892,399.434ZM360.713,416.455L360.713,417.428L360.394,417.347L360.713,416.455ZM360.713,399.694L360.713,400.526L354.165,415.606L353.892,415.523L353.892,413.234L359.883,399.438C360.16,399.525 360.437,399.61 360.713,399.694ZM424.561,403.262L428.684,419.738C428.29,419.81 427.896,419.879 427.5,419.947L423.378,403.472C423.773,403.403 424.168,403.333 424.561,403.262ZM418.213,404.26L421.235,420.904C420.841,420.957 420.445,421.007 420.049,421.057L417.026,404.413C417.422,404.363 417.818,404.312 418.213,404.26ZM411.855,404.954L413.777,421.712C413.38,421.746 412.982,421.779 412.583,421.81L410.661,405.053C411.06,405.021 411.458,404.988 411.855,404.954ZM405.489,405.351L406.31,422.171C405.911,422.185 405.513,422.203 405.113,422.217L404.294,405.395C404.693,405.383 405.091,405.366 405.489,405.351ZM399.12,405.455L398.837,422.287C398.438,422.284 398.04,422.283 397.642,422.277L397.925,405.444C398.322,405.45 398.721,405.452 399.12,405.455ZM392.752,405.27L391.367,422.064C390.967,422.043 390.568,422.019 390.17,421.996L391.554,405.201C391.953,405.226 392.352,405.25 392.752,405.27ZM386.383,404.792L383.897,421.498C383.498,421.459 383.102,421.413 382.704,421.371L385.19,404.665C385.588,404.708 385.984,404.753 386.383,404.792ZM380.021,404.01L376.435,420.576C376.038,420.518 375.643,420.455 375.248,420.393L378.834,403.829C379.229,403.891 379.625,403.952 380.021,404.01ZM373.671,402.922L368.986,419.293C368.593,419.215 368.2,419.136 367.807,419.056L372.492,402.685C372.884,402.766 373.277,402.845 373.671,402.922ZM360.713,400.526L360.713,399.694L361.033,399.791L360.713,400.526ZM360.713,417.428L360.713,416.455L366.173,401.225C366.56,401.324 366.949,401.422 367.337,401.518L361.558,417.641L360.713,417.428ZM436.068,418.088L436.068,418.217C435.691,418.304 435.314,418.39 434.936,418.475L429.717,402.219C430.108,402.132 430.498,402.043 430.888,401.952L436.068,418.088ZM436.068,400.637L436.068,400.744L436.029,400.647L436.068,400.637ZM436.068,418.217L436.068,418.088L436.106,418.207L436.068,418.217ZM442.906,414.794L442.906,416.469L442.341,416.627L436.068,400.744L436.068,400.637C436.443,400.533 436.816,400.427 437.19,400.32L442.906,414.794ZM442.906,398.547L442.906,400.005L442.312,398.747C442.511,398.682 442.709,398.614 442.906,398.547ZM442.906,416.469L442.906,414.794L443.501,416.3L442.906,416.469ZM449.696,411.566L443.453,398.359L442.906,398.547L442.906,400.005L449.696,414.368L449.696,411.566ZM449.696,396.113L449.696,398.577L448.544,396.502C448.919,396.356 449.293,396.208 449.666,396.059L449.696,396.113ZM449.696,414.368L449.696,411.566L450.85,414.005C450.469,414.135 450.09,414.267 449.708,414.393L449.696,414.368ZM456.425,408.226L449.696,396.113L449.696,398.577L456.425,410.688L456.425,408.226ZM456.425,394.355L456.425,396.566L454.711,393.907C455.078,393.74 455.447,393.574 455.813,393.405L456.425,394.355ZM456.425,410.688L456.425,408.226L458.139,411.311C457.766,411.46 457.393,411.608 457.018,411.755L456.425,410.688ZM463.076,404.672L463.076,406.883L456.425,396.566L456.425,394.355L463.076,404.672ZM463.076,392.012L463.076,394.021L460.798,390.95C461.156,390.764 461.513,390.574 461.868,390.384L463.076,392.012ZM463.076,406.883L463.076,404.672L465.354,408.205C464.987,408.375 464.618,408.539 464.251,408.706L463.076,406.883ZM469.617,400.834L469.617,402.843L463.076,394.021L463.076,392.012L469.617,400.834ZM469.617,389.114L469.617,390.965L466.776,387.615C467.124,387.409 467.471,387.201 467.815,386.99L469.617,389.114ZM469.617,402.843L469.617,400.834L472.459,404.666C472.104,404.855 471.748,405.046 471.39,405.232L469.617,402.843ZM476.029,396.672L476.029,398.522L469.617,390.965L469.617,389.114L476.029,396.672ZM476.029,385.698L476.029,387.419L472.619,383.896C472.954,383.668 473.286,383.438 473.618,383.207L476.029,385.698ZM478.866,400.016L478.866,401.037L478.398,401.316L476.029,398.522L476.029,396.672L478.866,400.016ZM478.866,388.629L478.866,390.351L476.029,387.419L476.029,385.698L478.866,388.629ZM478.866,379.335L478.866,380.298L478.293,379.778L478.866,379.335ZM478.866,401.037L478.866,400.016L479.438,400.691L478.866,401.037ZM485.005,394.973L485.005,396.693L478.866,390.351L478.866,388.629L485.005,394.973ZM485.005,384.249L485.005,385.861L478.866,380.298L478.866,379.335L479.25,379.034L485.005,384.249ZM485.005,374.722L485.005,376.251L483.759,375.263C484.063,374.994 484.364,374.723 484.664,374.451L485.005,374.722ZM485.005,396.693L485.005,394.973L486.25,396.26C485.918,396.49 485.586,396.721 485.251,396.948L485.005,396.693ZM490.916,389.607L490.916,391.219L485.005,385.861L485.005,384.249L490.916,389.607ZM490.916,379.413L490.916,380.942L485.005,376.251L485.005,374.722L490.916,379.413ZM490.916,370.227L490.916,371.682L488.973,370.336C489.257,370.049 489.538,369.758 489.818,369.468L490.916,370.227ZM490.916,391.219L490.916,389.607L492.86,391.369C492.544,391.619 492.223,391.865 491.903,392.113L490.916,391.219ZM496.549,383.883L496.549,385.412L490.916,380.942L490.916,379.413L496.549,383.883ZM496.549,374.124L496.549,375.579L490.916,371.682L490.916,370.227L496.549,374.124ZM496.549,365.209L496.549,366.603L493.881,365.006C494.145,364.698 494.405,364.391 494.664,364.08L496.549,365.209ZM496.549,385.412L496.549,383.883L499.216,385.999C498.915,386.27 498.614,386.541 498.311,386.81L496.549,385.412ZM504.697,379.763L504.697,380.748L504.423,381.027L496.549,375.579L496.549,374.124L504.697,379.763ZM504.697,370.092L504.697,371.486L496.549,366.603L496.549,365.209L504.697,370.092ZM504.697,361.149L504.697,362.492L498.435,359.277C498.674,358.953 498.911,358.627 499.146,358.299L504.697,361.149ZM504.697,352.786L504.697,354.088L502.574,353.168C502.787,352.826 502.997,352.484 503.205,352.14L504.697,352.786ZM504.697,371.486L504.697,370.092L510.959,373.844C510.699,374.153 510.438,374.462 510.176,374.769L504.697,371.486ZM504.697,380.748L504.697,379.763L505.268,380.158L504.697,380.748ZM513.615,365.728L513.615,367.071L504.697,362.492L504.697,361.149L513.615,365.728ZM513.615,356.65L513.615,357.952L504.697,354.088L504.697,352.786L513.615,356.65ZM513.615,348.072L513.615,349.342L506.238,346.704C506.331,346.525 506.426,346.347 506.517,346.167L506.76,345.621L513.615,348.072ZM513.615,349.342L513.615,348.072L525.213,352.22C525.028,352.576 524.84,352.932 524.651,353.287L513.615,349.342ZM513.615,357.952L513.615,356.65L520.991,359.846C520.783,360.189 520.572,360.532 520.359,360.874L513.615,357.952ZM513.615,367.071L513.615,365.728L516.223,367.067C515.987,367.394 515.75,367.72 515.511,368.045L513.615,367.071Z" style="fill:rgb(216,230,227);fill-rule:nonzero;"/>
        <path d="M292.196,343.424L273.493,349.41C273.317,349.047 273.143,348.684 272.972,348.319L291.705,342.323L291.857,342.695C291.967,342.939 292.083,343.182 292.196,343.424ZM506.76,345.621L525.213,352.22C525.028,352.576 524.84,352.932 524.651,353.287L506.238,346.704C506.331,346.525 506.426,346.347 506.517,346.167L506.76,345.621ZM503.205,352.14L520.991,359.846C520.783,360.189 520.572,360.532 520.359,360.874L502.574,353.168C502.787,352.826 502.997,352.484 503.205,352.14ZM499.146,358.299L516.223,367.067C515.987,367.394 515.75,367.72 515.511,368.045L498.435,359.277C498.674,358.953 498.911,358.627 499.146,358.299ZM494.664,364.08L510.959,373.844C510.699,374.153 510.438,374.462 510.176,374.769L493.881,365.006C494.145,364.698 494.405,364.391 494.664,364.08ZM489.818,369.468L505.268,380.158C504.987,380.448 504.707,380.739 504.423,381.027L488.973,370.336C489.257,370.049 489.538,369.758 489.818,369.468ZM484.664,374.451L499.216,385.999C498.915,386.27 498.614,386.541 498.311,386.81L483.759,375.263C484.063,374.994 484.364,374.723 484.664,374.451ZM479.25,379.034L492.86,391.369C492.544,391.619 492.223,391.865 491.903,392.113L478.293,379.778C478.613,379.531 478.934,379.284 479.25,379.034ZM473.618,383.207L486.25,396.26C485.918,396.49 485.586,396.721 485.251,396.948L472.619,383.896C472.954,383.668 473.286,383.438 473.618,383.207ZM467.815,386.99L479.438,400.691C479.094,400.9 478.746,401.108 478.398,401.316L466.776,387.615C467.124,387.409 467.471,387.201 467.815,386.99ZM461.868,390.384L472.459,404.666C472.104,404.855 471.748,405.046 471.39,405.232L460.798,390.95C461.156,390.764 461.513,390.574 461.868,390.384ZM455.813,393.405L465.354,408.205C464.987,408.375 464.618,408.539 464.251,408.706L454.711,393.907C455.078,393.74 455.447,393.574 455.813,393.405ZM449.666,396.059L458.139,411.311C457.766,411.46 457.393,411.608 457.018,411.755L448.544,396.502C448.919,396.356 449.293,396.208 449.666,396.059ZM443.453,398.359L450.85,414.005C450.469,414.135 450.09,414.267 449.708,414.393L442.312,398.747C442.693,398.621 443.072,398.489 443.453,398.359ZM437.19,400.32L443.501,416.3C443.114,416.41 442.729,416.519 442.341,416.627L436.029,400.647C436.418,400.541 436.805,400.431 437.19,400.32ZM430.888,401.952L436.106,418.207C435.717,418.298 435.327,418.387 434.936,418.475L429.717,402.219C430.108,402.132 430.498,402.043 430.888,401.952ZM424.561,403.262L428.684,419.738C428.29,419.81 427.896,419.879 427.5,419.947L423.378,403.472C423.773,403.403 424.168,403.333 424.561,403.262ZM418.213,404.26L421.235,420.904C420.841,420.957 420.445,421.007 420.049,421.057L417.026,404.413C417.422,404.363 417.818,404.312 418.213,404.26ZM411.855,404.954L413.777,421.712C413.38,421.746 412.982,421.779 412.583,421.81L410.661,405.053C411.06,405.021 411.458,404.988 411.855,404.954ZM405.489,405.351L406.31,422.171C405.911,422.185 405.513,422.203 405.113,422.217L404.294,405.395C404.693,405.383 405.091,405.366 405.489,405.351ZM399.12,405.455L398.837,422.287C398.438,422.284 398.04,422.283 397.642,422.277L397.925,405.444C398.322,405.45 398.721,405.452 399.12,405.455ZM392.752,405.27L391.367,422.064C390.967,422.043 390.568,422.019 390.17,421.996L391.554,405.201C391.953,405.226 392.352,405.25 392.752,405.27ZM386.383,404.792L383.897,421.498C383.498,421.459 383.102,421.413 382.704,421.371L385.19,404.665C385.588,404.708 385.984,404.753 386.383,404.792ZM380.021,404.01L376.435,420.576C376.038,420.518 375.643,420.455 375.248,420.393L378.834,403.829C379.229,403.891 379.625,403.952 380.021,404.01ZM373.671,402.922L368.986,419.293C368.593,419.215 368.2,419.136 367.807,419.056L372.492,402.685C372.884,402.766 373.277,402.845 373.671,402.922ZM367.337,401.518L361.558,417.641C361.169,417.543 360.781,417.445 360.394,417.347L366.173,401.225C366.56,401.324 366.949,401.422 367.337,401.518ZM361.033,399.791L354.165,415.606C353.78,415.491 353.397,415.373 353.015,415.254L359.883,399.438C360.266,399.558 360.649,399.676 361.033,399.791ZM354.769,397.728L346.819,413.182C346.44,413.045 346.063,412.906 345.686,412.767L353.635,397.315C354.013,397.454 354.39,397.593 354.769,397.728ZM348.557,395.32L339.534,410.35C339.163,410.193 338.795,410.031 338.425,409.873L347.447,394.845C347.816,395.004 348.185,395.164 348.557,395.32ZM342.419,392.55L332.339,407.092C331.976,406.916 331.614,406.738 331.253,406.559L341.333,392.017C341.694,392.196 342.056,392.374 342.419,392.55ZM336.376,389.41L325.253,403.402C324.9,403.205 324.544,403.011 324.193,402.81L335.317,388.818C335.668,389.018 336.022,389.213 336.376,389.41ZM330.451,385.891L318.306,399.268C317.964,399.051 317.625,398.829 317.286,398.609L329.43,385.232C329.769,385.453 330.108,385.673 330.451,385.891ZM324.677,381.976L311.54,394.669C311.212,394.431 310.884,394.193 310.559,393.953L323.695,381.261C324.021,381.501 324.349,381.738 324.677,381.976ZM319.09,377.663L304.991,389.603C304.679,389.346 304.37,389.084 304.061,388.823L318.158,376.884C318.468,377.144 318.777,377.404 319.09,377.663ZM313.734,372.941L298.716,384.059C298.422,383.78 298.125,383.504 297.833,383.223L312.852,372.105C313.144,372.387 313.439,372.664 313.734,372.941ZM308.652,367.815L292.763,378.039C292.488,377.741 292.216,377.44 291.945,377.141L307.834,366.917C308.105,367.218 308.377,367.518 308.652,367.815ZM303.9,362.284L287.196,371.546C286.944,371.229 286.699,370.91 286.451,370.592L303.153,361.33C303.4,361.648 303.648,361.968 303.9,362.284ZM299.536,356.36L282.086,364.592C281.859,364.258 281.637,363.922 281.414,363.586L298.863,355.354C299.085,355.691 299.309,356.027 299.536,356.36ZM295.616,350.065L277.498,357.203C277.299,356.852 277.102,356.501 276.907,356.148L295.024,349.012C295.219,349.364 295.417,349.715 295.616,350.065Z" style="fill:none;stroke:rgb(216,230,227);stroke-width:1.2px;"/>
        <rect x="391.471" y="304.24" width="4.8" height="24.002" style="fill:rgb(128,143,140);fill-rule:nonzero;"/>
        <rect x="402.99" y="304.24" width="4.8" height="24.002" style="fill:rgb(128,143,140);fill-rule:nonzero;"/>
        <rect x="391.471" y="326.396" width="16.319" height="16.31" style="fill:rgb(128,143,140);fill-rule:nonzero;"/>
        <g transform="matrix(1,0,0,1,3.11691,-50.3896)">
            <text x="261.243px" y="243.653px" style="font-family:'ArialNarrow-BoldItalic', 'Arial', sans-serif;font-weight:700;font-style:italic;font-stretch:condensed;font-size:36px;fill:white;stroke:white;stroke-width:1px;stroke-linejoin:round;">DESIGN <tspan x="381.284px 402.588px " y="243.653px 243.653px ">AN</tspan>D CODE</text>
        </g>
    </g>
</svg>
